<!DOCTYPE svg PUBLIC "-//W3C//DTD SVG 1.1//EN" "http://www.w3.org/Graphics/SVG/1.1/DTD/svg11.dtd">

<!-- Uploaded to: SVG Repo, www.svgrepo.com, Transformed by: SVG Repo Mixer Tools -->
<svg width="800px" height="800px" viewBox="-6.4 -6.4 76.80 76.80" xmlns="http://www.w3.org/2000/svg" xmlns:xlink="http://www.w3.org/1999/xlink" aria-hidden="true" role="img" class="iconify iconify--emojione" preserveAspectRatio="xMidYMid meet" fill="#000000" stroke="#000000" stroke-width="0.128" transform="matrix(1, 0, 0, 1, 0, 0)">

<g id="SVGRepo_bgCarrier" stroke-width="0">

<path transform="translate(-6.4, -6.4), scale(2.4)" d="M16,30.31319394393971C18.546648050256728,30.028611598349062,18.669292992378487,25.731527013005064,20.984926148268737,24.63414536078008C23.640251803403082,23.375782978459444,27.741412513621654,26.124131170538906,29.615383641957543,23.860845410804217C31.345363447619174,21.771464950466218,29.112459374414573,18.529967404680644,28.13388604180593,16C27.38890655665776,14.073957513683434,25.44315022687439,12.913519911166567,24.644433421294046,11.009134037224086C23.67884406498203,8.706872813543294,25.099940896740478,5.219856786083616,23.028278279559398,3.826664930070356C21.013364480781277,2.471636620081282,18.41678716684389,5.430532425561939,16,5.195757794144907C13.180875985690612,4.921898841872032,10.75871080307432,1.309280838102122,8.136506284538072,2.3800293598213678C5.649346616786929,3.3956337944483277,5.261727553013626,6.994336587117452,5.038897030629155,9.671604250018529C4.852522294898546,11.910862354401399,7.321693564664231,13.775727451932973,7.002908320215187,15.999999999999998C6.596555340879781,18.83526227295463,2.143216241271945,20.75706078041059,3.061269711116374,23.47017941525891C3.89149723491216,25.923746489468684,8.037765739647536,24.614110828611288,10.327480744178352,25.82509155799588C12.495791558886914,26.97186423788506,13.562285382463202,30.58560321685408,16,30.31319394393971" fill="#7ed0ec" strokewidth="0"/>

</g>

<g id="SVGRepo_tracerCarrier" stroke-linecap="round" stroke-linejoin="round"/>

<g id="SVGRepo_iconCarrier">

<circle cx="32" cy="32" r="30" fill="#4fc8d8"/>

<path d="M37.7 18.1c2 .7 3.7 1.9 4.9 3.7c1 1.4 1.7 3 2.1 4.7s.6 3.3.6 4.8c0 3.9-.8 7.1-2.3 9.8c-2.1 3.6-5.3 5.4-9.7 5.4H20.7v-29h12.5c1.8 0 3.3.2 4.5.6m-11.1 4.4v18.9h5.6c2.9 0 4.9-1.4 6-4.2c.6-1.5.9-3.4.9-5.5c0-3-.5-5.2-1.4-6.8c-.9-1.6-2.8-2.4-5.5-2.4h-5.6" fill="#ffffff"/>

</g>

</svg>