<svg xmlns="http://www.w3.org/2000/svg" width="64" height="64" enable-background="new 0 0 64 64" id="game"><circle cx="39.055" cy="34.202" r="15.745" fill="#ab0738" transform="rotate(-87.862 39.055 34.202)"></circle><circle cx="24.945" cy="28.533" r="15.745" fill="#ff6d00" transform="rotate(-87.862 24.945 28.533)"></circle><path fill="#edb29f" d="m24.412 27.403 8.875 2.907 1.625-3.532 4.219-6.53 3.187-2.345 2.563-2.718-.063-5.688-3.156.125.25 4.094-1.552 1.062-2.48 1.594-2.156 1.031-.625-1.125 2.032-1.562 1.44-2.778-.91-2.628-3.03-.532-2.313 1.563-.265 2.89-.516 1.735-2.75.25-1.656 1.094-2.47.25-1.53 2.906-2.157 1.094-1.468 3.062.53 1.75 2.782-.437 2.75-2.938-.469 2.906z"></path><path fill="#ab0738" d="M22.678 20.81s1.093 1.937 1.593 2.125.89-.407.89-.407l-1.64-2.11-.843.392z"></path><path fill="#edb29f" d="m20.85 56.447 1.614-1.356 1.875-1.625 3.042-2.5 1.625-3.781 1.083-.51-.083 1.082.333 3.625 2.083 4.5 2.584-1.166-.375-1.417-.834-4.625-.291-6.458-2.125-3.625-7.292 1.5.042 3.937-.292 4.063-1.208 1.625-2.375 2-1.782 3.047z"></path><path fill="#e6e7e8" d="M23.026 20.757s1.063 1.584 1.271 1.709.813.229.813.229l1.583-1.854.625-.563 1.583-.541.896-.688 1.438-1.208-1.688-.646-2.812.333-1.417 1.167-2.292 2.062z"></path><path fill="#30384c" d="m25.756 17.862 2.104.187s.604-.77 1.062-.667c.459.105 1.104.542 1.125.688.021.146.104.937-.02 1.146-.126.208.458.729.458.729l1.27-.854.5-1.667-.229-1.042-1.229-1.062s-.916-.104-1-.104-1.479.416-1.479.416l-.792.48-.875.666-.895 1.084zM32.068 12.278s.688.209 1.104-.166c.417-.375.48-1 .771-.75s.396.687.396.687l.396-.062s.166-.771.27-.834 1.417-.77 2.167-.396 1.4 1.181 1.4 1.181l-.941-2.16-1.792-1.041s-1.27-.25-1.375-.23c-.104.021-2.146 1.834-2.146 1.834l-.27.687.02 1.25z"></path><path fill="#ab0738" d="M24.714 26.757s3.625.875 4.917 1.375c1.291.5 3.812 1.803 3.812 1.803s-.583 2.78-.344 3.28.615 4.626.615 4.626l-.333 2.208-.292.313-1.042-.875-4.26.698-1.625.25.5 2.218 2.094.125 1.25 1.594-.157 1.625-.843 1.188s-.782-.532-1.907-1.032-3.01-.236-3.01-.236l-1.208-.743 1-2.02-1.063-2-1.156-5.126-.031-4.187 1.416-2.5 1.667-2.584z"></path><path fill="#231f20" d="M34.597 16.679h-.032a.448.448 0 0 1 .037-.895h.012c.276 0 1.48-.338 1.702-.464.107-.155 1.013-1.891 1.807-3.483a2.903 2.903 0 0 0-2.899-2.799 2.903 2.903 0 0 0-2.899 2.845c.056.222.22.92.173 1.393-.022.218-.4 2.03-.847 2.34a.448.448 0 0 1-.51-.737c.082-.14.425-1.282.466-1.692.029-.282-.085-.844-.162-1.132a.422.422 0 0 1-.016-.116c0-2.093 1.703-3.795 3.795-3.795s3.795 1.702 3.795 3.795a.44.44 0 0 1-.047.199c-1.855 3.731-2.065 3.866-2.177 3.938-.28.18-1.697.603-2.198.603z"></path><path fill="#231f20" d="M20.557 26.087c-.235 0-.443-.055-.638-.193-.487-.345-.992-1.237-.892-1.828.023-.13.047-.2.09-.32.03-.078.07-.186.13-.39.101-.34.156-.597.187-.742.1-.47.366-1.698 1.135-2.552.312-.346 1.214-.744 2.175-.97a4.442 4.442 0 0 1 1.09-2.12c.508-.541 1.152-.948 1.918-1.21.606-.21 1.168-.27 1.191-.273l.586-.046c.82-.456 1.674-.928 2.763-.73.348.062 1.533.35 2.129 1.458.483.898.39 1.955-.276 3.14-.148.264-.601 1.069-1.426 1.234-.32.065-1.17-.129-1.381-.684-.155.123-.33.254-.52.382a2.177 2.177 0 0 1-.817.365c-.176.036-.29.037-.375.032-.227.024-.36.205-.563.5a7.898 7.898 0 0 1-.199.281c-.217.29-.353.402-.542.559-.132.109-.304.252-.581.524a9.234 9.234 0 0 0-1.254 1.507c-.324.468-.602.872-1.27 1.263-.53.31-1.011.445-1.476.575-.477.132-.856.238-1.184.238zm5.508-9.487-.023.008c-.234.08-.943.323-1.553.976-.618.66-.839 1.423-.916 1.946a.446.446 0 0 1-.356.375c-1.106.215-1.867.628-1.984.756-.61.677-.836 1.729-.91 2.074-.047.222-.107.505-.218.876-.068.233-.115.357-.148.446-.022.06-.036.093-.047.159-.025.178.25.752.526.947.123.089.556-.035 1.059-.175.452-.127.839-.234 1.268-.486.498-.291.682-.559.988-1 .285-.412.64-.926 1.363-1.637a8.91 8.91 0 0 1 .638-.574c.167-.139.243-.202.395-.406.064-.084.122-.17.179-.252.256-.371.545-.793 1.081-.875.088-.014.16-.012.234-.013.06.001.101.002.182-.014.205-.042.356-.136.494-.23.38-.254.686-.52.91-.714.3-.259.607-.524.927-.244.117.102.178.28.152.434a1.25 1.25 0 0 1-.063.233c-.03.088-.092.27-.067.336.04.033.293.117.4.117.346-.071.618-.486.79-.792.188-.335.762-1.355.267-2.276-.406-.755-1.248-.957-1.497-1.001-.739-.131-1.33.167-2.051.564a.442.442 0 0 1-.273.16c-.3.193-1.022.706-1.615 1.498-.095.13-.256.345-.364.667-.04.118-.062.22-.074.292a.45.45 0 0 1-.13.243c-.886.853-2.458 2.298-3.033 2.39-.243.038-.62.372-.811.597a.447.447 0 0 1-.684-.577c.112-.133.702-.8 1.355-.903.28-.092 1.472-1.12 2.452-2.056.019-.08.043-.17.076-.269.154-.458.376-.757.495-.918.19-.253.389-.48.586-.682z"></path><path fill="#ff6d00" d="M28.235 42.487s-2.104-1.855-2.48-1.834c-.374.021-2.083.854-2.083.854l-.604 1.042.281.573 1.72.125 3.166-.76z"></path><path fill="#ab0738" d="M41.635 10.407s2.191.382 2.654.115c.462-.268.25-.947.25-.947l-2.671-.069-.233.9z"></path><path fill="#ff6d00" d="M22.714 29.757s-.458 2.334.417 3.792c.875 1.458 3.166 5.125 3.166 5.125l.542 1.542 1.875-.125s-1.125-3.084-2.042-4.625c-.916-1.542-2.291-3.292-2.458-4.042-.167-.75-.458-3-.458-3l-1.042 1.333z"></path><path fill="#e6e7e8" d="m31.985 54.8 2.541-.772 1.334 1.938.208 1.166-2.604.73-.688-1.042zM39.787 6.278l1.75-2.875 1.25-.25 1.156.625.344 2.5v1.407l.375 2.375s-.406.125-1.063.156-1.687-.188-1.687-.188l-.5-2.062-1.625-1.688z"></path><path fill="#30384c" d="M39.678 5.966s.593.312 1.078.094.593-.813.593-1.079.438-1.25.672-1.375.328-.343.563.157 1.281 1.125 1.281 1.125l-.36-1.953-1.343-1.032-2.188-.156-.906-.187-1.156 1.437-.5 1.625.906.75 1.36.594z"></path><path fill="#ab0738" d="M32.964 57.55s.375-.48 1.083-.543c.709-.062 1.125-.208 1.25-.354s.625-.479.625-.479l1.271 2.313 1.896 1.854 2.25.562.77.334-.187 1.104-8.562.125-.854-.209.125-1.812.333-2.896z"></path><path fill="#231f20" d="M33.084 41.288a.448.448 0 0 1-.438-.543c.016-.068.371-1.688.692-2.522.19-.494-.347-3.198-.524-4.086a13.08 13.08 0 0 1-.16-.887c-.036-.46.281-3.13.356-3.424.091-.419.266-1.217 1.18-2.662.96-1.516 3.321-4.951 3.613-5.342.083-.109.19-.365.292-.613.187-.45.399-.958.72-1.278.213-.213.627-.467 1.107-.76.562-.345 1.334-.816 1.521-1.105.318-.489 1.096-1.189 1.849-1.867.296-.267.58-.523.81-.744.494-.474.49-.628.486-.842a2.1 2.1 0 0 1 .003-.247c.025-.298-.187-2.622-.4-3.777-.071-.382-.146-.845-.222-1.313-.14-.847-.295-1.81-.409-2.148-.232-.698.107-1.104.269-1.3.005-.076-.163-.693-.275-1.101a17.607 17.607 0 0 1-.279-1.11c-.13-.652-.408-.904-.562-.997-.254-.104-2.62-.606-3.393-.71-.392-.056-.517.124-.599.242-.015.023-.067.09-.086.11.012.005-.063.191-.172.455-.126.303-.29.698-.486 1.139-.22.494-.02.778.193 1.078.079.111.153.216.204.333.058.026.462.1.634.133.188.035.352.069.449.106.162.062.464.23.906.477.253.142.485.275.57.311.453.11.928 2.077 1.167 3.238.13.63.542 4.025.097 4.62-.226.298-.635.503-1.068.72-.19.095-.377.188-.529.283-.297.19-.97.884-1.325 1.278a.45.45 0 0 1-.277.144c-.006 0-.52.067-1.734.384-1.025.27-1.356.97-1.37 1a.447.447 0 0 1-.59.224.445.445 0 0 1-.23-.583c.02-.046.499-1.122 1.964-1.506.895-.235 1.43-.34 1.682-.381.278-.302.984-1.05 1.4-1.315.174-.11.39-.22.61-.329.275-.137.653-.327.751-.457.11-.332-.032-2.806-.258-3.902-.195-.95-.587-2.27-.743-2.644-.11-.055-.275-.147-.555-.304-.269-.15-.676-.38-.789-.423-.061-.023-.168-.04-.291-.062-.487-.09-1.092-.202-1.29-.654a1.615 1.615 0 0 0-.116-.175c-.247-.348-.707-.999-.28-1.958.193-.432.353-.821.477-1.118.231-.557.272-.651.366-.745.324-.481.806-.692 1.44-.606.513.069 3.392.626 3.732.83.28.169.782.6.978 1.588.06.298.164.68.266 1.05.305 1.122.393 1.49.21 1.765-.03.046-.069.093-.112.144-.125.15-.181.22-.106.445.136.407.284 1.321.441 2.288.076.46.15.917.22 1.294.212 1.146.448 3.579.412 4.014a1.107 1.107 0 0 0 0 .15c.01.417-.04.818-.762 1.51-.235.226-.527.489-.83.763-.644.58-1.445 1.3-1.698 1.69-.298.459-1.064.927-1.805 1.38-.395.242-.802.49-.941.63-.194.194-.378.634-.525.989-.136.326-.252.607-.402.806-.289.385-2.623 3.78-3.574 5.284-.83 1.311-.98 2.003-1.045 2.298 0 .003-.022.098-.024.102-.062.267-.357 2.807-.331 3.139.007.095.067.385.146.781.484 2.436.718 3.966.482 4.58-.297.773-.65 2.377-.653 2.394a.448.448 0 0 1-.437.351z"></path><path fill="#231f20" d="M33.3 62.914c-.195 0-.722-.034-1.035-.366a.85.85 0 0 1-.225-.69c.026-.255.114-.775.21-1.34.123-.73.276-1.639.288-1.963.017-.502-.497-2.679-1.256-4.038-.424-.757-1.807-3.425-1.807-5.926 0-.71.026-1.423.05-2.068.032-.897.073-2.012-.028-2.24-.171-.36-1.213-1.435-1.77-1.826-.567-.4-1.997-1.514-1.997-1.514l.551-.705c.001.001 1.404 1.095 1.962 1.487.581.409 1.786 1.594 2.062 2.174.187.39.167 1.18.114 2.656a55.39 55.39 0 0 0-.05 2.036c0 2.285 1.297 4.78 1.694 5.49.843 1.51 1.393 3.825 1.37 4.505-.014.385-.16 1.247-.301 2.081a27.787 27.787 0 0 0-.202 1.282c.038.036.269.084.41.07h8.166c.048 0 .109-.006.142-.032.011-.038.05-.252.063-.416-.387-.082-1.212-.187-1.603-.237l-.222-.03c-.64-.081-1.255-.655-1.8-1.163-.139-.13-.27-.252-.39-.354-.536-.454-1.222-1.165-1.776-2.643a9.211 9.211 0 0 0-.336-.805.537.537 0 0 1-.173.006.634.634 0 0 1-.38-.234c-.036-.052-.114-.17-.696-1.87l-.057-.043a.445.445 0 0 1-.175-.308c0-.007-.076-.678-.35-2.106-.171-.896-.352-2.664-.512-4.222-.104-1.012-.194-1.903-.26-2.318-.072-.446-.054-.987-.035-1.56.026-.815.057-1.738-.191-2.393-.357-.937-2.268-3.45-2.975-4.339a.448.448 0 0 1 .701-.556c.107.134 2.632 3.319 3.11 4.578.312.823.279 1.84.249 2.739-.017.528-.034 1.028.024 1.39.068.424.162 1.335.268 2.368.149 1.464.337 3.287.5 4.145.2 1.04.296 1.684.336 1.98l.015.012a.45.45 0 0 1 .154.213c.189.554.4 1.159.534 1.517a.453.453 0 0 1 .154.001c.275.06.485.298.933 1.49.482 1.286 1.063 1.892 1.516 2.275.13.11.273.242.423.382.4.374.95.886 1.303.932l.221.028c1.739.222 2.033.301 2.206.474.143.144.198.354.177.682-.009.135-.07.83-.407 1.092a1.078 1.078 0 0 1-.731.217l-8.106.002-.06.001z"></path><path fill="#e6e7e8" d="M19.162 53.763s.437.828 1.062 1.172 1.344.796 1.344.796l-.922 1.094-1.5.047-1.11-.703-.265-.875.703-.531.579-.907.109-.093z"></path><path fill="#ab0738" d="M18.026 55.257s.834 1.042 1.355 1.146c.52.104 1.166.313 1.166.313l-.541 1.68.645 2.236 2.136 1.258-.312.567-3.47-.054-1.437-2.166-1.687-2.292.166-1.292 1.98-1.396z"></path><path fill="#231f20" d="M22.675 62.975c-.475 0-3.041-.035-3.041-.035a.45.45 0 0 1-.332-.154l-3.931-4.52c-.07-.07-.47-.563.333-1.455.305-.34.944-.962 1.563-1.565.55-.533 1.078-1.047 1.313-1.306.139-.153.275-.47.434-.835.3-.692.71-1.638 1.555-2.458 1.045-1.015 2.283-1.963 2.71-2.283.073-.49.277-1.844.355-2.423-.166-.062-.58-.09-.935-.05a.464.464 0 0 1-.414-.189.447.447 0 0 1-.036-.452l1.062-2.187a.446.446 0 1 1 .805.39l-.746 1.536c.351.03.73.121.954.35.166.17.24.396.208.637-.083.638-.396 2.706-.396 2.706a.444.444 0 0 1-.18.294c-.015.011-1.552 1.136-2.764 2.313-.718.696-1.071 1.514-1.356 2.171-.19.44-.356.82-.593 1.081-.241.267-.785.797-1.352 1.347-.608.592-1.237 1.204-1.521 1.52-.164.182-.226.3-.248.359l3.723 4.28c.49.007 1.762.024 2.449.03a7.278 7.278 0 0 0-.243-.09c-.31-.113-.735-.267-1.137-.535-.962-.638-1.304-2.396-1.355-3.02-.068-.845.695-1.934.897-2.206.247-.583.84-.996 1.525-1.473.479-.333 1.02-.71 1.526-1.201.906-.88 1.58-1.395 2.231-1.892.256-.196.508-.387.767-.598.485-.394.608-.76.778-1.265.102-.302.217-.643.422-1.026.532-.995 1.867-3.416 1.867-3.416l.783.431s-1.33 2.416-1.861 3.406c-.17.319-.268.609-.362.89-.185.549-.376 1.117-1.063 1.675-.266.216-.524.413-.788.614-.63.482-1.282.98-2.151 1.823-.557.54-1.131.94-1.638 1.293-.586.409-1.092.761-1.223 1.116a.445.445 0 0 1-.065.117c-.332.433-.785 1.228-.752 1.64.061.758.428 1.996.958 2.347.312.208.663.336.945.438.41.148.734.265.853.591l.047.114c.094.214.237.537.042.837-.086.13-.264.288-.622.288zm-6.647-5.316.031.036a.482.482 0 0 0-.03-.036z"></path><path fill="#231f20" d="M47.173 62.996H11.86a.447.447 0 1 1 0-.894h35.313a.447.447 0 1 1 0 .894zM24.682 43.718c-.672 0-1.388-.15-1.425-.158a.447.447 0 0 1-.331-.294c-.039-.113-.936-2.77-1.352-4.308-.36-1.329-1.065-6.216-.076-7.849.232-.383.513-.814.81-1.273.773-1.19 1.649-2.537 2.116-3.703.625-1.562.557-3.91.556-3.934a.447.447 0 0 1 .433-.462c.253.011.454.185.462.433.003.105.073 2.563-.621 4.295-.498 1.248-1.4 2.635-2.196 3.858-.292.45-.567.873-.795 1.25-.69 1.14-.29 5.436.174 7.15.336 1.243 1.016 3.299 1.253 4.007.359.06.929.128 1.318.074.54-.073 2.43-.567 3.11-.75a.447.447 0 1 1 .232.863c-.101.03-2.514.677-3.221.774a3.29 3.29 0 0 1-.447.027z"></path><path fill="#231f20" d="M23.13 42.85a.446.446 0 0 1-.4-.647c.066-.13.66-1.28 1.573-1.687.67-.3 2.06-.488 3.074-.624.273-.037.51-.07.682-.097.244-.04.662-.099 1.13-.163.803-.112 2.147-.299 2.357-.373.266-.114.402-.179.407-.18a.447.447 0 1 1 .387.807c0-.001-.147.07-.45.2-.216.092-.863.193-2.578.432-.459.064-.87.12-1.11.16-.177.03-.422.062-.705.1-.906.122-2.276.307-2.83.554-.53.237-1 .998-1.136 1.272a.448.448 0 0 1-.4.247zM35.787 17.816a.442.442 0 0 1-.216-.056c-.45-.244-.768-1.068-.885-1.41a.448.448 0 0 1 .848-.288c.137.4.361.837.472.917a.444.444 0 0 1 .175.605.45.45 0 0 1-.394.232zM52.14 10.112a.448.448 0 0 1-.379-.209 17.073 17.073 0 0 0-6.301-5.919.45.45 0 0 1-.18-.607.451.451 0 0 1 .607-.18 17.988 17.988 0 0 1 6.632 6.23.447.447 0 0 1-.379.685zM51.654 13.84a.447.447 0 0 1-.414-.278 11.054 11.054 0 0 0-3.358-4.474.448.448 0 0 1 .556-.701 11.955 11.955 0 0 1 3.63 4.837.447.447 0 0 1-.414.616z"></path></svg>