<svg xmlns="http://www.w3.org/2000/svg" width="32" height="32" id="game"><path fill="#ffd42a" d="m12.72 1020.362-.747 2.461 13.105 1.756-3.568 26.684.328.1 7.83-25.862z" color="#000" overflow="visible" style="isolation:auto;mix-blend-mode:normal" transform="translate(0 -1020.362)"></path><path fill="#5fd38d" d="m7.526 1022.227-.283 2.114H21.21v26.98l.285.04 3.582-26.782-17.552-2.352z" color="#000" overflow="visible" style="isolation:auto;mix-blend-mode:normal" transform="translate(0 -1020.362)"></path><path fill="#373748" d="M3.5 1023.84a.5.5 0 0 0-.5.5v27.021a.5.5 0 0 0 .5.5h17.71a.5.5 0 0 0 .5-.5v-27.021a.5.5 0 0 0-.5-.5H3.5zm.5 1h16.71v26.021H4v-26.021z" color="#000" font-family="sans-serif" font-weight="400" overflow="visible" style="line-height:normal;text-indent:0;text-align:start;text-decoration-line:none;text-decoration-style:solid;text-decoration-color:#000;text-transform:none;block-progression:tb;isolation:auto;mix-blend-mode:normal" transform="translate(0 -1020.362)"></path><g style="line-height:125%"><path style="-inkscape-font-specification:'sans-serif Bold'" fill="#373748" d="M-510.404 905.081q0 .587-.357.9-.358.313-1.053.313-.696 0-1.053-.313-.355-.313-.355-.898v-2.023h.82v1.977q0 .33.139.491.138.162.449.162.306 0 .447-.156.142-.155.142-.497v-1.977h.821v2.021zm3.646 1.147h-.787l-1.344-2.174v2.174h-.749v-3.168h.976l1.155 1.815v-1.815h.75v3.168zm3.893-1.583q0 .757-.434 1.204-.434.445-1.2.445-.763 0-1.197-.445-.434-.447-.434-1.204 0-.764.434-1.206.434-.445 1.197-.445.762 0 1.198.445.436.442.436 1.206zm-1.083.802q.12-.145.177-.34.057-.198.057-.464 0-.285-.066-.485-.065-.2-.172-.323-.108-.128-.25-.185-.141-.058-.294-.058-.156 0-.294.055-.136.056-.251.183-.106.12-.174.33-.066.209-.066.485 0 .283.063.483.066.198.173.323.106.126.249.185.142.06.3.06.157 0 .3-.06.142-.061.248-.189z" font-family="sans-serif" font-size="4.357" font-weight="700" letter-spacing="0" transform="matrix(.8657 -.50019 .49981 .86635 0 -1020.362)" word-spacing="0"></path></g><path fill="#373748" d="M10.036 1033.832c-1.636.945-2.883 2.22-3.586 3.562-.703 1.343-.862 2.8-.184 3.976.677 1.175 2.019 1.765 3.532 1.827 1.513.062 3.24-.382 4.875-1.328 1.637-.945 2.886-2.22 3.59-3.562.702-1.342.86-2.8.182-3.974-.678-1.175-2.018-1.767-3.53-1.829-1.514-.062-3.242.382-4.879 1.327zm.5.866c1.488-.86 3.053-1.248 4.337-1.195 1.283.053 2.242.524 2.706 1.33.465.805.393 1.87-.203 3.009-.596 1.139-1.714 2.301-3.202 3.16-1.488.86-3.052 1.248-4.335 1.195-1.284-.053-2.243-.522-2.708-1.328-.464-.805-.392-1.873.204-3.011.596-1.139 1.713-2.3 3.201-3.16z" color="#000" font-family="sans-serif" font-weight="400" overflow="visible" style="line-height:normal;text-indent:0;text-align:start;text-decoration-line:none;text-decoration-style:solid;text-decoration-color:#000;text-transform:none;block-progression:tb;isolation:auto;mix-blend-mode:normal" transform="translate(0 -1020.362)"></path></svg>