<svg xmlns="http://www.w3.org/2000/svg" width="32" height="32" id="game"><g color="#000"><path style="line-height:normal;text-indent:0;text-align:start;text-decoration-line:none;text-decoration-style:solid;text-decoration-color:#000;text-transform:none;block-progression:tb;isolation:auto;mix-blend-mode:normal" fill="#373748" d="M.5 1020.361a.5.5 0 0 0-.5.5v31a.5.5 0 0 0 .5.5h31a.5.5 0 0 0 .5-.5v-31a.5.5 0 0 0-.5-.5H.5zm.5 1h30v30H1v-30z" font-family="sans-serif" font-weight="400" overflow="visible" transform="translate(0 -1020.362)"></path><path style="isolation:auto;mix-blend-mode:normal" fill="#5fd38d" d="M1 1021.362h12v12H1z" overflow="visible" transform="translate(0 -1020.362)"></path><path style="isolation:auto;mix-blend-mode:normal" fill="#f2f2f2" d="M3 1023.362h8v8H3z" overflow="visible" transform="translate(0 -1020.362)"></path><path style="isolation:auto;mix-blend-mode:normal" fill="#5fd38d" d="M4 1027.862h2.5v2.5H4zm3.5 0H10v2.5H7.5zm-4.5 5.5v4h10v1l2-2.008-2-1.992v1H5v-2zm1-9h2.5v2.5H4zm3.5 0H10v2.5H7.5z" overflow="visible" transform="translate(0 -1020.362)"></path><path style="isolation:auto;mix-blend-mode:normal" fill="#f55" d="M-1051.362 1h12v12h-12z" overflow="visible" transform="matrix(0 -1 1 0 0 -1020.362)"></path><path style="isolation:auto;mix-blend-mode:normal" fill="#f2f2f2" d="M-1049.362 3h8v8h-8z" overflow="visible" transform="matrix(0 -1 1 0 0 -1020.362)"></path><path style="isolation:auto;mix-blend-mode:normal" fill="#f55" d="M-1048.362 7.5h2.5V10h-2.5zm3.5 0h2.5V10h-2.5z" overflow="visible" transform="matrix(0 -1 1 0 0 -1020.362)"></path><path style="isolation:auto;mix-blend-mode:normal" fill="#f55" d="M13 1049.362h4v-10h1l-2.008-2-1.992 2h1v8h-2z" overflow="visible" transform="translate(0 -1020.362)"></path><path style="isolation:auto;mix-blend-mode:normal" fill="#f55" d="M-1048.362 4h2.5v2.5h-2.5zm3.5 0h2.5v2.5h-2.5z" overflow="visible" transform="matrix(0 -1 1 0 0 -1020.362)"></path><path style="isolation:auto;mix-blend-mode:normal" fill="#2a7fff" d="M1021.362-31h12v12h-12z" overflow="visible" transform="rotate(90 510.181 -510.181)"></path><path style="isolation:auto;mix-blend-mode:normal" fill="#f2f2f2" d="M1023.362-29h8v8h-8z" overflow="visible" transform="rotate(90 510.181 -510.181)"></path><path style="isolation:auto;mix-blend-mode:normal" fill="#2a7fff" d="M1024.362-24.5h2.5v2.5h-2.5zm3.5 0h2.5v2.5h-2.5z" overflow="visible" transform="rotate(90 510.181 -510.181)"></path><path style="isolation:auto;mix-blend-mode:normal" fill="#2a7fff" d="M19 1023.362h-4v10h-1l2.008 2 1.992-2h-1v-8h2z" overflow="visible" transform="translate(0 -1020.362)"></path><path style="isolation:auto;mix-blend-mode:normal" fill="#2a7fff" d="M1024.362-28h2.5v2.5h-2.5zm3.5 0h2.5v2.5h-2.5z" overflow="visible" transform="rotate(90 510.181 -510.181)"></path><path style="isolation:auto;mix-blend-mode:normal" fill="#ffd42a" d="M-31-1051.362h12v12h-12z" overflow="visible" transform="rotate(180 0 -510.181)"></path><path style="isolation:auto;mix-blend-mode:normal" fill="#f2f2f2" d="M-29-1049.362h8v8h-8z" overflow="visible" transform="rotate(180 0 -510.181)"></path><path style="isolation:auto;mix-blend-mode:normal" fill="#ffd42a" d="M-28-1044.862h2.5v2.5H-28zm3.5 0h2.5v2.5h-2.5z" overflow="visible" transform="rotate(180 0 -510.181)"></path><path style="isolation:auto;mix-blend-mode:normal" fill="#ffd42a" d="M29 1039.362v-4H19v-1l-2 2.008 2 1.992v-1h8v2z" overflow="visible" transform="translate(0 -1020.362)"></path><path style="isolation:auto;mix-blend-mode:normal" fill="#ffd42a" d="M-28-1048.362h2.5v2.5H-28zm3.5 0h2.5v2.5h-2.5z" overflow="visible" transform="rotate(180 0 -510.181)"></path></g></svg>