<svg xmlns="http://www.w3.org/2000/svg" width="64" height="64" enable-background="new 0 0 64 64" id="game"><g><g><circle cx="-10.827" cy="46.496" r="15.745" fill="#ab0738" transform="rotate(-56.957)"></circle><circle cx="-5.689" cy="32.183" r="15.745" fill="#ff6d00" transform="rotate(-56.957)"></circle><path fill="#edb29f" d="m29.177 47.805.26 3.291-.79 1.177-2.188.22-.438-.688-1.187-9.105-3.646-2.312 2.541-2.5-.333-3.146 5.188-3.125-.22-.656 4.063-3.063 1.875 2.032.657 2.437-3.313 3.406-1.594 1.657-.468 3.75.03 3.718z"></path><path fill="#30384c" d="M21.25 43.534 19.71 42.18l-.23-.5 2-1.23 3.355 1.355-1.75 1.812z"></path><path fill="#edb29f" d="m36.563 10.805-.5-2.875 3.146-.959 2.708-.291 1.708.312-.229 2.792-1.312 3.208-.667.354-1.167-.896-.979.271-.687 1.167z"></path><path fill="#546187" d="m36.48 6.43-.396 1.666s.187.5.937.396c.75-.104 1.417-.958 1.958-1.187.542-.23.938-.355 1.209-.021.27.333.375.666.375.666l.458.188s-.083-.708.188-.75c.27-.042 1.479-.167 1.479-.167l-1.438-.979-.833-.875-1.854-.27-1.625.874-.459.459z"></path><path fill="#30384c" d="M40.5 5.742s-.791-.104-1.416.021c-.625.125-1.125.458-1.459.73-.333.27-1.27.478-1.333.478-.063 0-.333-1.541-.333-1.541l-.594-1.032.864-.78.042-.96 2.125.522 1.354 1.312.667.875.083.375z"></path><path fill="#ab0738" d="M23.896 35.367s4.938-2.812 4.938-3.062-.25-.688-.25-.688.875-1.594 1.75-2.156c.875-.563 2.093-1.563 2.093-1.563l-5.593-4.437 1.5-1.438 5.583-3.573.792-.333s.968-1.219 1.78-1.375c.813-.156 2.813-.5 2.813-.5l-.53-2.375-.876-2.062s.375-.344-.094-1.157c-.468-.812-.587-1.718-1.871-1.906-1.285-.187-6.639.875-6.639.875l-5.5 2.292-3.958 3.208-2.375 2.25-2.623 3.748-.169 2.794 1.667 2.958 7.562 8.5zM36.146 2.805s1.771.187 2.458.812c.688.625 1.042.938 1.521 1.688.48.75.625 1.187 1 1.395.375.209 2.396 1.084 2.646 1.188.25.104.73.292.875.167.146-.125-.375-2.98-.375-2.98L41.813 2.95l-2.688-.5-3.166-.114.187.469z"></path><path fill="#ff6d00" d="M36.688 2.325s1.77.188 2.458.813c.688.625 1.042.937 1.521 1.687.48.75.625 1.188 1 1.396.375.209 2.396 1.084 2.646 1.188.25.104.354.125.5 0 .146-.125-.792-2.73-.792-2.73l-2.458-2.124-1.896-.584-3.167-.114.188.468z"></path><path fill="#30384c" d="M38.417 5.846c.062.063-.02.188.25.48.27.291.48.416.542.645.062.23.312 5.354.312 5.354l.73.125s-.084-3.02-.209-3.541c-.125-.521-.083-1.98-.063-2.125.021-.146.313-.584.355-.75.041-.167-.209-.73-.209-.73l-1.708.542z"></path><path fill="#edb29f" d="m35.542 16.409 3.5-.709 4.5 5.125L46.5 22.91l2.667 2.666 1.208.5.662.355 1.703.593 1 2-.344 1.094s-.75.781-1.187.844c-.438.062-1.313-.344-1.313-.344l-1.578-1.75-3.703-3.062-4.573-2.646-3.865-4.573-1.635-2.177z"></path><path fill="#ff6d00" d="M15.125 20.909s.334 1.958 2.125 4.333c1.792 2.375 7.25 8.833 7.417 9.083.167.25 3.583-1.625 3.583-1.625s-4.958-8.083-6.666-9.833c-1.709-1.75-4.167-4.75-4.375-5.125-.209-.375-2.084 3.167-2.084 3.167z"></path><path fill="#ab0738" d="M19.834 41.555s.312.666.708 1.062c.396.396 1.396.813 1.77.833.376.021.772.167.772.167l1.625 2.708-.105 1.438-2-.875-3.395-2.042-.48-.916.563-1.73.542-.645z"></path><path fill="#30384c" d="M26.063 52.034s.916.104 1.541-.125c.625-.23 1.834-.813 1.834-.813l.812 1.063-1.229 1.479-2.542.48-.375-1.043-.041-1.041z"></path><path fill="#231f20" d="M14.084 62.044c-6.45 0-11.697-5.247-11.697-11.698 0-6.45 5.247-11.697 11.697-11.697 6.45 0 11.697 5.247 11.697 11.697 0 6.45-5.247 11.698-11.697 11.698zm0-22.5c-5.957 0-10.803 4.845-10.803 10.802S8.127 61.15 14.084 61.15c5.957 0 10.803-4.846 10.803-10.803 0-5.957-4.846-10.802-10.803-10.802z"></path><path fill="#231f20" d="M14.084 58.742c-4.629 0-8.396-3.767-8.396-8.396 0-4.629 3.767-8.395 8.396-8.395 4.629 0 8.395 3.766 8.395 8.395 0 4.63-3.766 8.396-8.395 8.396zm0-15.897c-4.136 0-7.501 3.366-7.501 7.501 0 4.136 3.365 7.501 7.501 7.501s7.5-3.365 7.5-7.5c0-4.136-3.364-7.502-7.5-7.502zM50.167 58.742c-4.629 0-8.396-3.767-8.396-8.396 0-4.629 3.767-8.395 8.396-8.395 4.629 0 8.395 3.766 8.395 8.395 0 4.63-3.766 8.396-8.395 8.396zm0-15.897c-4.136 0-7.501 3.366-7.501 7.501 0 4.136 3.365 7.501 7.501 7.501s7.501-3.365 7.501-7.5c0-4.136-3.365-7.502-7.501-7.502z"></path><path fill="#ab0738" d="M26.104 53.075s.334.48 1.063.438c.73-.042 1.73-.292 2.104-.625.375-.333.813-.625.813-.625l2.166 1.02 1.896.75 1.896.355-.104 1.042-1.834.52-3.229.355-2.812-.167-1.834.208-.437-1.979.312-1.292z"></path><path fill="#231f20" d="M50.25 62.044c-6.45 0-11.697-5.247-11.697-11.698 0-6.45 5.247-11.697 11.697-11.697 6.45 0 11.697 5.247 11.697 11.697 0 6.45-5.247 11.698-11.697 11.698zm0-22.5c-5.957 0-10.803 4.845-10.803 10.802S44.293 61.15 50.25 61.15c5.957 0 10.803-4.846 10.803-10.803 0-5.957-4.846-10.802-10.803-10.802zM26.792 56.83c-.735 0-1.026-.157-1.251-.74-.155-.406-.099-1.282-.001-2.474l.035-.439c.066-.881.086-3.092-.056-3.921-.153-.88-.648-3.522-1.116-5.173-.433-1.534.062-4.093.472-5.884l.022-.098c.168-.737-.043-1.108-.197-1.379-.262-.356-5.832-6.473-9.508-10.494a4.33 4.33 0 01-1.268-3.08c0-.904.177-1.665.526-2.26a24.652 24.652 0 0121.03-12.59c.022-.29.094-.684.286-1.137.244-.576.197-1.07-.135-1.427-.469-.506-.684-1.173-.693-1.201a.45.45 0 01.313-.567l-.11-.174a.447.447 0 01.38-.685h.223l-.21-.63a.448.448 0 01.4-.588c.46-.027 4.545-.236 5.812.496.744.432 2.54 1.583 3.125 2.963.425 1.001.475 2.64.092 3.023-.198.199-.625.38-1.018.375-1.271 4.268-1.454 4.465-1.533 4.55-.197.246-.458.576-.912.601-.366.019-.748-.166-1.154-.573-.332-.332-.52-.417-.593-.439a.682.682 0 01-.057.036l-1.328.687a.447.447 0 11-.412-.795l1.27-.656a.72.72 0 01.415-.17c.415-.043.829.196 1.338.704.256.257.457.306.47.314.053-.004.149-.124.205-.196.037-.047.07-.088.102-.122.112-.218.843-2.543 1.462-4.635a.445.445 0 01.629-.273l.187.094c.018-.01.165-.06.253-.108.07-.298.09-1.287-.24-2.067-.333-.785-1.36-1.733-2.75-2.537-.694-.402-3.06-.464-4.727-.405l.22.657a.45.45 0 01-.425.589h-.036l.041.065a.45.45 0 01-.313.68l-.04.006c.073.125.163.256.27.372.572.617.683 1.486.303 2.385-.283.668-.218 1.16-.217 1.165a.451.451 0 01-.442.514 23.759 23.759 0 00-20.704 12.145c-.273.464-.409 1.071-.409 1.813 0 .932.363 1.806 1.02 2.463 3.536 3.865 9.468 10.37 9.634 10.66.194.34.543.953.299 2.03l-.023.1c-.225.976-.905 3.947-.483 5.439.477 1.689.981 4.373 1.134 5.264.173 1.003.126 3.357.069 4.14l-.035.446c-.05.593-.15 1.825-.056 2.08.015.04.05.132.067.155.032.007.218.029.802-.003a4.965 4.965 0 001.05-.188c.446-.114.865-.225 1.46-.119.557.1 2.457.408 3.52.19 1.041-.215 2.252-.654 2.42-.752.05-.032.066-.043.066-.206-.005-.085-.174-.315-.347-.323-.113-.008-.298 0-.509.007-.776.025-1.4.031-1.77-.127-.18-.077-.505-.262-.874-.474-.511-.294-1.147-.659-1.511-.785-.765-.262-1.376-.87-1.595-1.584-.181-.588-.492-2.884-.265-4.656.24-1.894.384-4.328.286-4.824-.12-.593-.256-2.993.154-3.925.08-.179.161-.349.24-.51.237-.488.423-.873.355-1.223-.105-.538-2.2-5.568-2.904-6.885-.287-.538-.626-1.28-.955-1.997-.44-.96-.894-1.951-1.186-2.378a29.84 29.84 0 01-.428-.653c-.411-.641-.878-1.368-1.33-1.763a.449.449 0 01-.043-.632.449.449 0 01.632-.042c.548.48 1.05 1.262 1.494 1.953.143.222.28.437.413.632.336.49.785 1.472 1.262 2.51.326.714.654 1.43.93 1.948.645 1.208 2.85 6.403 2.994 7.135.125.644-.144 1.199-.43 1.786-.073.152-.151.311-.226.48-.29.66-.214 2.791-.095 3.388.147.737-.07 3.491-.277 5.113-.206 1.62.075 3.762.235 4.28.135.44.539.833 1.03 1.002.445.153 1.094.526 1.666.854.33.19.618.358.78.428.219.093.98.067 1.39.055.242-.008.451-.014.583-.007.673.033 1.195.681 1.195 1.217 0 .444-.145.739-.47.955-.288.192-1.716.67-2.73.88-1.143.234-2.905-.017-3.857-.186-.4-.07-.684.002-1.077.104a5.785 5.785 0 01-1.225.214c-.189.01-.356.018-.505.018zm13.066-44.052v.001-.001zm4.413-4.958z"></path><path fill="#ff6d00" d="m49.167 25.575-1.255 1.76 1.687 1.485 1.375 1.25s.328-.062.297-.328c-.031-.265.5-.14.563-.234.062-.094.625-.422.672-.531.046-.11.593-.25.609-.375.016-.125-.14-1.25-.14-1.25l-.704-.61-1.234-.312-1.87-.855z"></path><path fill="#30384c" d="m49.19 25.575-1.255 1.76 1.688 1.485 1.375 1.25s.789-.297.758-.562c-.016-.133-.694-.569-1.11-1.14-.495-.682-.738-1.528-.299-2.247l.028-.046-1.184-.5z"></path><path fill="#231f20" d="M30.459 37.231a.447.447 0 0 1-.3-.78c1.045-.943 3.838-3.491 4.206-3.933.285-.342.328-1.627-.455-2.7-.658-.901-5.746-4.679-7.651-6.058a.449.449 0 0 1-.025-.705c.145-.122 3.57-2.983 5.006-3.787 1.394-.779 4.426-2.61 4.456-2.628a.448.448 0 0 1 .463.766c-.03.019-3.075 1.856-4.481 2.644-1.073.598-3.443 2.516-4.427 3.326 1.652 1.205 6.623 4.875 7.382 5.915.891 1.222 1.088 2.998.42 3.8-.476.57-3.905 3.673-4.294 4.025a.444.444 0 0 1-.3.115z"></path><path fill="#e6e7e8" d="m30.084 52.263 13.708-14.146.333.458 1.834 5.75 3.833 5.25-3.417-8.541-1.333-4.917L44 32.825l-1.125-3.166-.708 1.208-.708 1.625-7.084 1-4.104.531-.5.563.563.75 10.562-1.125 1.156.969-.03 1.437-2.813 3.75-5.25 5.625-2.792 2.917-1.875 1.75z"></path><path fill="#231f20" d="M52.98 31.064a.449.449 0 0 1-.33-.75 6.94 6.94 0 0 0 .388-.466c.06-.122.11-.753.068-1.39-.023-.307-.801-1.384-1.14-1.577-.213-.122-1.002-.227-1.612-.254a.447.447 0 0 1-.421-.382 4.347 4.347 0 0 0-.479-.297.485.485 0 0 1-.59-.042c-.102-.095-2.524-2.316-3.239-3.116-.382-.427-1.744-1.455-2.838-2.281-.996-.752-1.567-1.187-1.744-1.383-.312-.347-2.35-3.004-2.764-4.425-.21-.725-.768-2.649-1.376-3.215-.418-.39-1.424-.558-1.776-.59a.446.446 0 0 1-.405-.485c.021-.246.264-.439.484-.405.161.013 1.59.157 2.309.826.691.645 1.19 2.12 1.624 3.619.347 1.196 2.223 3.691 2.569 4.076.128.142.92.74 1.618 1.268 1.184.893 2.526 1.906 2.966 2.398.571.639 2.376 2.314 2.979 2.87a.918.918 0 0 1 .608.098c.474.256.71.441.829.59.479.037 1.313.13 1.701.352.52.298 1.546 1.62 1.59 2.298.03.46.065 1.571-.244 1.984a8.673 8.673 0 0 1-.445.535.449.449 0 0 1-.33.144z"></path><path fill="#ab0738" d="m38.396 34.45.917-1.729-2.459.417-1.375 1.875z"></path><path fill="#30384c" d="m35.66 34.909 1.465-1.73-3.928.417L31 35.471z"></path><path fill="#ab0738" d="m40.29 41.26-.413-1.914-1.612 1.903.156 2.32z"></path><path fill="#30384c" d="m38.493 43.372.006-2.266-2.736 2.85-.473 2.848z"></path><path fill="#ff6d00" d="m33.25 45.659-1.396-1.209.73-1.645 1.708-1.459.75-.666.896-1.125 1.25.333.583.958-.667.834s-.583 0-.708.27c-.125.271.146 1.021.146 1.021s-1.375 1.709-1.458 1.792c-.084.083-1.834.896-1.834.896z"></path><path fill="#231f20" d="M29.552 34.627a.448.448 0 01-.06-.891c3.142-.434 11.4-1.582 11.875-1.682.345-.073.52-.294.52-.656 0-.306-.347-1.29-.592-1.893a.447.447 0 11.828-.338c.11.27.658 1.642.658 2.231 0 .785-.471 1.372-1.23 1.531-.602.127-11.475 1.63-11.937 1.694a.462.462 0 01-.062.004zM30.553 49.97a.449.449 0 01-.326-.753c.076-.082 7.658-8.159 9.952-10.39 1.76-1.713 1.628-2.428 1.499-3.12a4.67 4.67 0 01-.072-.496c-.028-.409-.21-.475-.65-.538l-.14-.022c-.437 0-6.494.822-10.45 1.378a.448.448 0 01-.125-.887c6.846-.96 10.452-1.414 10.736-1.372l.107.017c.365.053 1.334.192 1.415 1.361.009.133.034.262.059.396.191 1.027.19 2.032-1.756 3.924-2.279 2.218-9.847 10.28-9.923 10.362a.445.445 0 01-.326.14z"></path><path fill="#231f20" d="M48.076 33.918a3.57 3.57 0 0 1-.71-.067.448.448 0 0 1 .187-.875c.054.012 1.338.276 2.218-.586.584-.57.966-1.626.565-2.334-.243-.426-.716-.601-1.173-.77-.934-.344-1.81-.25-2.379-.11l-4.65 1.217a.447.447 0 1 1-.227-.865l4.657-1.219c.999-.244 2.003-.196 2.909.138.521.192 1.235.456 1.64 1.167.645 1.135.113 2.606-.717 3.417-.753.737-1.686.887-2.32.887z"></path><path fill="#e6e7e8" d="m21.709 34.43 1.03-.063.4 1.519-1.462 2.512-7.312 11.516 10.969 2.328-.47 1.188-6.218-.766-5.375-2.031-.047-1.75z"></path><path fill="#231f20" d="M24.813 41.502a.448.448 0 0 1-.426-.31l-2.353-7.249a.446.446 0 0 1 .286-.563c.235-.08.488.05.564.286l2.354 7.25c-.004.236-.052.488-.288.564a.45.45 0 0 1-.138.022z"></path><path fill="#231f20" d="m24.953 53.934-8.5-1.312c-.851-.131-3.67-.618-4.179-1.382-.52-.78.164-1.92.243-2.048l9.6-16.014a.448.448 0 0 1 .805.077l.802 2.209a.449.449 0 0 1-.042.39l-8.86 14.158 10.708 1.726a.446.446 0 1 1-.142.883l-11.375-1.833a.444.444 0 0 1-.336-.257.444.444 0 0 1 .028-.422l9.103-14.545-.408-1.119-9.12 15.215c-.2.324-.4.876-.261 1.084.222.268 1.892.735 3.57.993l8.5 1.313-.136.884z"></path><path fill="#231f20" d="M24.782 48.481s-1.2-.632-1.737-.947c-.577-.339-3.323-1.892-3.933-2.124-.93-.355-1.132-1.698-1.132-2.012a.447.447 0 11.895 0c0 .24.197 1.04.556 1.176.713.271 3.61 1.92 4.067 2.188.525.309 1.7.927 1.7.928l-.416.791zM32.27 53.908a.446.446 0 01-.444-.505 3.647 3.647 0 00-2.688-4.001.447.447 0 01.225-.865 4.542 4.542 0 013.349 4.981.446.446 0 01-.442.39zM50.084 29.814a.447.447 0 01-.33-.143c-.375-.408-1.053-1.115-1.273-1.279-.1-.075-.332-.233-.617-.426-.897-.612-1.662-1.14-1.93-1.408-.216-.202-1.93-1.175-3.064-1.819-.93-.528-1.732-.983-2.072-1.205-.96-.625-2.803-2.878-3.576-3.945a193.196 193.196 0 00-2.535-3.366l.71-.545s1.671 2.173 2.55 3.385c.885 1.223 2.583 3.23 3.34 3.72.317.208 1.147.679 2.025 1.178 2.105 1.195 3.022 1.732 3.254 1.965.23.23 1.214.9 1.802 1.3.3.204.546.371.65.45.357.266 1.29 1.274 1.395 1.387a.449.449 0 01-.329.751z"></path><path fill="#ab0738" d="M41.334 4.492a2.584 2.584 0 0 0-.792-.687c.28.044.731.155 1.167.479.486.361.993 1.016.828 1.286-.068.111-.248.156-.39.125-.37-.078-.382-.63-.813-1.203z"></path><path fill="#546187" d="M37.798 4.547c-.176-.01-.395.01-.65.103.134-.117.37-.289.701-.368.37-.087.89-.067.953.122.026.077-.025.182-.097.238-.187.146-.457-.07-.907-.095zM37.798 5.276c-.176-.01-.395.01-.65.103.134-.117.37-.289.701-.367.37-.088.89-.068.953.121.026.078-.025.182-.097.238-.187.146-.457-.07-.907-.095z"></path><path fill="#ab0738" d="M46.188 39.93 44.52 40.97l-.042-1.041 1.292-1.417z"></path><path fill="#30384c" d="m47.271 46.46-2.25-4.405-.344-1.5 1.094-.907 1.438 3.688 1.718 3.906z"></path><path fill="#231f20" d="M19.271 42.46a.448.448 0 01-.292-.785l4.542-3.917a.447.447 0 11.583.677l-4.54 3.917a.443.443 0 01-.293.109zM23.084 44.064a.448.448 0 01-.322-.758l1.75-1.812c.173-.178.295-.18.472-.012a.448.448 0 01.011.633l-1.589 1.812a.447.447 0 01-.322.137zM31.709 51.19a.446.446 0 01-.323-.758l12.083-12.625a.446.446 0 01.757.201c.01.043 1.08 4.295 2.12 6.094.382.66 1.06 1.573 1.772 2.472-.253-.52-.502-1.05-.724-1.558-1.03-2.34-3.608-10.664-3.717-11.017-.095-.29-.925-2.938-.208-4.33.202-.393.52-.666.919-.791.209-.066.633-.172 1.034-.272.288-.071.563-.14.724-.185a.448.448 0 01.244.861c-.167.048-.452.118-.752.193-.38.094-.784.194-.983.256a.645.645 0 00-.391.349c-.464.901.035 2.94.266 3.648.029.093 2.673 8.634 3.682 10.927 1.012 2.299 2.56 5.092 2.576 5.12a.449.449 0 01-.727.515c-.138-.157-3.397-3.848-4.49-5.74-.83-1.437-1.64-4.196-2.008-5.546L32.032 51.05a.445.445 0 01-.324.138z"></path><circle cx="13.938" cy="50.388" r="2.298" fill="#30384c"></circle><path fill="#231f20" d="M13.938 53.186a2.8 2.8 0 0 1-2.798-2.798 2.802 2.802 0 0 1 2.798-2.798 2.802 2.802 0 0 1 2.798 2.798 2.802 2.802 0 0 1-2.799 2.798zm0-4.596a1.8 1.8 0 0 0-1.798 1.798 1.8 1.8 0 0 0 1.797 1.798 1.8 1.8 0 0 0 1.8-1.798 1.8 1.8 0 0 0-1.8-1.798z"></path><path fill="#30384c" d="M35.787 40.023s.687.282 1 .688c.312.406.515.719.515.719l.47-.584-.584-.958-1.057-.286-.344.421z"></path><circle cx="50.237" cy="50.388" r="1.283" fill="#30384c"></circle><path fill="#231f20" d="M50.237 52.172c-.983 0-1.783-.8-1.783-1.784 0-.983.8-1.784 1.783-1.784.984 0 1.784.801 1.784 1.784 0 .984-.8 1.784-1.784 1.784zm0-2.568a.785.785 0 000 1.568.784.784 0 000-1.568zM33.625 46.398a.447.447 0 01-.268-.089c-2.106-1.575-2.145-1.73-2.186-1.895-.148-.583 1.576-2.118 1.733-2.197.374-.187 1.09-.32 1.413.11a.45.45 0 01-.09.628.452.452 0 01-.559-.019.744.744 0 00-.364.081c-.185.114-.853.83-1.147 1.214.345.298 1.087.876 1.736 1.361a.447.447 0 01-.268.806zm-1.648-2.335zm1.624-1.198z"></path><path fill="#231f20" d="M33.375 42.814a.446.446 0 01-.325-.755l1.48-1.562c.075-.08.18-.13.29-.139.095-.008.211-.03.287-.052a1.151 1.151 0 00-.022-.172.453.453 0 01.135-.43l.728-.667c.14-.13.35-.154.52-.06l.664.368.222-.192a.448.448 0 01.586.678l-.46.396a.449.449 0 01-.51.052l-.656-.364-.317.29c.012.178-.003.403-.106.589-.153.275-.504.391-.825.437L33.7 42.675a.448.448 0 01-.325.14zM33.48 2.814H22.853a.447.447 0 110-.894H33.48a.447.447 0 110 .894zM28.895 4.894A.447.447 0 0128.893 4l4.585-.018h.002a.447.447 0 01.001.895l-4.584.017h-.002zM62.688 62.159H1.312a.5.5 0 110-1h61.376a.5.5 0 110 1z"></path></g></g></svg>