<svg xmlns="http://www.w3.org/2000/svg" width="64" height="64" id="game"><circle cx="24.787" cy="30.351" r="16.433" fill="#ff6d00"></circle><circle cx="39.213" cy="47.183" r="16.433" fill="#ab0738"></circle><path fill="#fff" d="m20.989 52.595-.884.859-.188.875.542.667 2.063.271-.417-1.355-1.167-.75z"></path><path fill="#ab0738" d="M20.78 55.15s-.376-.257-.578-.648.035-1.166.378-1.411c.343-.246.426-.489.963-.413.537.076.706.245.867.007.161-.237.5-.518.5-.518l-.757-1.597-.536-1.463-.894.123-3.117 2.112-3.157 2.214-.83.898.188.925.74.136 1.447-.833 1.5.306 2.755.5.532-.338z"></path><path fill="#ff6d00" d="M18.157 52.052s.446.023.778.384c.333.361.428.504.283 1.05-.145.545-.4 1.463-.4 1.463l.467.197s.303-1.1.587-1.55c.283-.45.34-.73 1.117-1s1.813-.545 1.813-.545l-.227-.768s-.517.436-1.297.56-1.449.189-1.751-.042c-.303-.23-.643-.83-.643-.83l-1.073.729.346.352z"></path><path fill="#edb29f" d="m19.126 50.225 3.291-1.208 3.459 3.5 1.375.916 1-.75.208-1.958 9.417-.667-.709 1.292-.791 1.542-1.042 4.333-2.25.583-.833.084-.709 1.833-2.375 1.542-3.041-2.125-4.084-4.917zM28.772 21.37l-1.605-2.437-.687-3.968-.063-1.438 2.782-.125 2.375 2.156 1.906 1.625.687 1.532.563.937 4.219-.5 9.677-3.802 3.958-2.083 1.292-.25 1.166.812s.334.688-.416 1.063-1.98.812-1.98.812l-1.374.208-1.542.792-2.583 1.708-3.063 1.896-4.25 1.459-1.333 1.125-6.084 1.416-3.062-.5-1.083-1.5.5-.937z"></path><path fill="#32313c" d="m29.209 39.767 1.833.791 5.334-.625 1.583.417.208 3.958-.375 4.625.063 1.771-1.375.98s-2.98.75-4.896.541-3.323-.823-3.323-.823l.031-2.677-.354-4.292.604-3.375.667-1.291z"></path><path fill="#ab0738" d="M22.855 25.996s.437.031 1.594 1.25 1.28 1.656 1.28 1.656l1.657-.969.469.282.531 1.562 1.719 2.719.844 3.125-.907 2.844-1.156 1.656s.375 1.312 2.313 1.312 7.812-1.718 7.812-1.718l1.344-1.063-.969-3.25-.781-4.406-.438-7.094.792-.552.27-1.354s.48-1.396.063-2.104c-.416-.709-.958-.605-.958-.605l-4.208.375-.813.146-.312 1.042s.416.312.52.646c.105.333.189.75-.058.939-.247.188-.318.364-.318.364l-.153.471-.588.13s-.318-.506-.459-.53c-.14-.023-.976.177-1.164.141-.189-.035-1.024-.07-1.4-.4s-.683-.517-.683-.517l-1.614.798-1.5.541-1.812 2.042-.917.52z"></path><path fill="#231f20" d="m28.318 54.098-.99-.14s.126-.882.44-2.643c.27-1.508.186-3.345.167-3.698a10.438 10.438 0 0 1 1.781-9.683l.781.626a9.305 9.305 0 0 0-2.058 5.873c0 1.006.157 1.993.465 2.934l.025.123c.006.09.143 2.21-.176 4-.31 1.733-.434 2.603-.435 2.608z"></path><path fill="#30384c" d="M29.667 13.59s-.438.842-1.093 1.343c-.532.407-1.605.97-1 3.188.375 1.375 1.312 1.469 1.218 2.719-.016.22-.02.53-.02.53s-.886.25-1.198.048-.438-.563-.563-.75-.765.093-.734.343.312 1.141.5 1.204.078.78.078.78l-1.61.485-.671 1.344-.75-1.453 1.28-2.844.329-.828-.484-2.172.406-2.375 1.375-1.656 2.469-.094.468.188z"></path><path fill="#231f20" d="M23.687 25.175c-.356-.467-.359-1.338-.01-3.11.199-1.01.77-1.609 1.146-2.004.097-.102.23-.242.256-.295.004-.15-.192-1.095-.387-1.849a3.523 3.523 0 0 1-.272-1.392 3.749 3.749 0 0 1 3.744-3.746c.74 0 1.455.215 2.067.622.424.397 3.542 3.403 3.93 3.92.246.329.996 1.33.016 2.31l-.18.18c-.37.365-.719.71-.706.902.024.347.178 1.024.236 1.256l-.97.242c-.01-.037-.23-.924-.264-1.432-.043-.648.44-1.126 1-1.68l.177-.175c.259-.259.3-.456-.11-1.003-.254-.34-2.437-2.477-3.753-3.743-.376-.241-.9-.399-1.443-.399a2.748 2.748 0 0 0-2.527 3.817c.13.481.47 1.855.425 2.324-.034.325-.256.56-.515.83-.332.35-.746.784-.89 1.509-.37 1.89-.21 2.256-.175 2.31l-.795.606z"></path><path fill="#ff6d00" d="m27.084 22.892-.458 1.166.583 1.146.833-2.5zM30.511 30.777l-1.219-1.125s.375-2.344 1-3 3.22-1.937 3.97-2.5 3.124-1.406 3.124-1.406l1.5-.625-.719 1.781.875 2.938-.593 3.968.875 5.22s.187-.126-1.344-1.907-3.75-2.5-4.906-2.938c-1.157-.437-2.563-.406-2.563-.406z"></path><path fill="#231f20" d="M33.514 20.352c.004-.005.037-.047.025-.156l-.994.1a.813.813 0 0 1 .233-.622c.34-.37.993-.537 1.96-.522 1.682.045 5.158-.58 5.938-.82.405-.126 2.003-.86 3.413-1.509 1.338-.615 2.601-1.196 3.18-1.419.975-.375 3.255-1.654 4.23-2.2l.43-.242c.473-.254 1.431-.466 1.644-.466.308 0 1.54.695 1.673 1.223.078.312.01.852-.022 1.07l-.989-.148c.034-.226.052-.492.046-.623-.146-.146-.567-.416-.767-.513-.22.04-.836.19-1.11.338l-.417.232c-.992.557-3.316 1.862-4.359 2.263-.549.211-1.856.813-3.121 1.394-1.578.725-3.068 1.41-3.536 1.554-.847.261-4.44.923-6.25.866-1.005-.017-1.205.198-1.207.2zm20.801-6.296z"></path><path fill="#231f20" d="M32.736 58.399c-.255 0-.45-.006-.502-.007l.034-1c.464.018 1.327.01 1.657-.07.328-.078.53-.232 1.017-.942.266-.388.631-2.549.807-3.588.229-1.35.268-1.579.637-1.605.252-.12.925-.56 1.038-.738.056-.165-.02-.91-.05-1.228a4.968 4.968 0 0 1-.039-.597l.034-.364c.084-.896.31-3.273.36-4.884.06-1.85-.287-3.162-.29-3.175l-.124-.462.456-.145a14.26 14.26 0 0 0 1.47-.578c.337-.156.503-.32.578-.42-.293-1.05-1.655-5.951-1.91-7.117-.177-.804.032-1.449.235-2.073.175-.54.357-1.1.357-1.869 0-1.615-1.057-3.275-1.067-3.292l-.31-.483 1.25-.577.187-1.122.236-.113s2.43-1.152 3.178-1.526c.477-.238 1.042-.35 1.54-.446.342-.068.666-.131.845-.215.285-.134.804-.516 1.591-1.094.515-.377 1.148-.842 1.927-1.393 1.955-1.384 2.462-1.544 3.422-1.775 1.057-.255 1.157-.255 1.21-.255l.05.997c-.048.007-.24.041-.932.208-.892.214-1.292.31-3.172 1.64a127.06 127.06 0 0 0-1.913 1.385c-.863.633-1.385 1.016-1.757 1.191-.292.138-.675.213-1.079.292-.435.085-.93.182-1.285.36-.61.304-2.33 1.124-2.961 1.423l-.188 1.128-.714.33c.363.689.942 2 .942 3.337 0 .928-.216 1.592-.406 2.178-.19.587-.328 1.01-.21 1.549.275 1.253 1.934 7.194 1.951 7.254l.036.129-.033.129c-.03.114-.222.706-1.178 1.148a14.92 14.92 0 0 1-1.155.474c.111.576.267 1.654.224 3.01-.053 1.643-.28 4.042-.366 4.946l-.03.346c-.004.074.015.23.034.421.085.849.13 1.478-.083 1.837-.184.316-.887.841-1.39 1.089-.041.214-.103.58-.16.912-.316 1.87-.607 3.46-.968 3.986-.536.782-.913 1.183-1.609 1.35-.36.087-.98.104-1.422.104z"></path><ellipse cx="18.902" cy="24.027" fill="#efffff" rx="1.984" ry="3.188" transform="rotate(-41.469 18.902 24.027)"></ellipse><path fill="#231f20" d="M20.041 27.255c-.266 0-.548-.043-.842-.13-.767-.23-1.534-.746-2.159-1.453s-1.042-1.531-1.176-2.321c-.147-.876.065-1.617.596-2.087 1.043-.924 2.935-.43 4.304 1.118.625.707 1.042 1.531 1.175 2.321.148.876-.064 1.617-.595 2.087-.349.308-.796.465-1.303.465zm-2.28-5.454c-.254 0-.475.068-.639.213-.354.313-.322.868-.271 1.17.101.6.443 1.265.94 1.826.494.56 1.112.982 1.695 1.156.293.089.84.187 1.196-.125.354-.314.322-.869.271-1.17-.101-.6-.443-1.266-.94-1.827-.685-.776-1.582-1.243-2.251-1.243z"></path><path fill="#edb29f" d="m26.605 28.34-2.833-2.865-2.355 1.333-.843 1.094-.875.5-1.657-2.375-.875-2.875-1.093-3.75-.594-.531s.031-.094-.438-.313-1.968-.312-2.093.22-.313.968.343 1.593 1.25 1.219 1.25 1.219l.657 3.687 1.406 4.563.77 1.135 1.574 1.333 2.718-1.156 2.782-1.312 2.156-1.5z"></path><path fill="#231f20" d="m11.733 17.019.743-.67 2.281 2.532-.743.67z"></path><path fill="#231f20" d="m30.497 38.563-.777-.63a4.053 4.053 0 0 0 .906-2.572c0-1.262-.53-2.461-1.416-3.208-.906-.755-1.625-2.231-1.83-3.654-.596.317-1.505.83-2.314 1.421-.529.387-2.995 1.674-4.53 2.12-1.173.339-2.105.436-2.774.276-.623-.146-.83-.993-.877-1.248-.001 0-.242-.967-.832-1.937-.544-.895-1.037-3.179-1.49-5.515l-.094-.481a9.723 9.723 0 0 0-.446-1.572l-1.43-.748-.19-1.917.631-1.02.85.527-.452.73.102 1.043 1.267.663.071.156c.014.03.339.754.577 1.942l.096.487c.25 1.293.837 4.321 1.362 5.185a8.714 8.714 0 0 1 .955 2.247c.042.216.138.46.198.516.273.05.943.069 2.198-.296 1.384-.401 3.758-1.628 4.219-1.965 1.418-1.037 3.064-1.818 3.133-1.85l.713-.337v.789c0 1.344.672 2.956 1.53 3.672 1.11.934 1.773 2.42 1.773 3.974a5.11 5.11 0 0 1-1.129 3.202z"></path><path fill="#fff" d="m17.834 49.621 1.521 1.166 2.979-1.416-.812-1.125-1.896-.917-1.459-.125-.666 1.229z"></path><path fill="#ab0738" d="M18.1 49.558s-.172-.422-.125-.86.672-.952 1.093-.968.625-.172 1.032.188.453.593.718.484.704-.156.704-.156l.25-1.75.359-1.516-.813-.39-3.765.041-3.854.104-1.188.292-.354.875.542.52 1.666.105 1.084 1.083 2.02 1.938.63.01z"></path><path fill="#ff6d00" d="M17.62 45.527s.36.266.438.75.078.656-.344 1.031-1.14 1-1.14 1l.28.422s.86-.75 1.345-.969.687-.421 1.484-.218 1.813.547 1.813.547l.234-.766s-.672.078-1.39-.25-1.313-.64-1.438-1-.078-1.047-.078-1.047l-1.297.016.094.484z"></path><path fill="#231f20" d="m19.545 29.044-1.22-1.693c-.765-1.06-1.558-3.77-2.084-5.564-.178-.61-.322-1.105-.419-1.37a4.273 4.273 0 0 0-.906-1.465l.69-.724c.03.029.746.718 1.156 1.847.1.278.253.794.44 1.432.474 1.622 1.269 4.338 1.933 5.26l.69.956c.17-.128.378-.309.573-.54.432-.513 1.047-.824 1.59-1.1.185-.094.365-.184.528-.28.292-.17.426-.325.596-.522.142-.163.302-.347.555-.55.322-.258.962-.952 1.345-1.367.22-.24.391-.421.451-.473.139-.122.355-.197 1.02-.412l.065-.022a5.077 5.077 0 0 1-.586-.702c-.183-.268-.246-.565-.183-.858.11-.514.558-.814.647-.869l.275-.17 1.335.908c.102.01.203.011.297.015.335.011.714.024.886.367.209.419-.086 1.132-.644 1.558-.303.23-.93.445-1.782.723-.286.094-.644.21-.727.254.002.009-.137.162-.319.36-.453.49-1.074 1.164-1.455 1.469-.19.151-.309.29-.424.424-.193.223-.413.477-.847.73-.18.105-.377.206-.581.31-.48.243-.976.494-1.278.851a4.483 4.483 0 0 1-1.234 1.02l-.383.197zm7.212-7.94v.003c.31.49.719.858.858.976a1.77 1.77 0 0 0 .354-.172.958.958 0 0 0 .146-.138 3.313 3.313 0 0 1-.339-.033l-.203-.08-.816-.555zm2.426 40.392a3.137 3.137 0 0 1-2.57-1.336 37.14 37.14 0 0 1-2.404-2.48c-1.087-1.23-4.817-6.025-5.884-7.4-.246.118-.545.178-.82.029-.158-.088-.422-.336-1.31-1.21-.513-.504-1.094-1.076-1.342-1.277-.366-.296-.572-.327-.574-.328l-1.8-.128c-.08-.037-.786-.382-.909-1.122-.075-.448.006-1.088.357-1.503.228-.27.535-.412.887-.412l9.178.026c.283.094.797.478.714 1.256-.038.355-.132.597-.207.791-.065.167-.108.279-.113.439-.013.386-.124.645-.205.836-.03.07-.06.14-.065.175a8.74 8.74 0 0 0-.032.4l4.554 4.083a5.12 5.12 0 0 1 2.717 5.125l-.995-.11a4.126 4.126 0 0 0-2.236-4.155l-.106-.073-4.953-4.442.008-.235s.018-.43.051-.71c.02-.177.082-.323.138-.45.063-.15.118-.278.124-.477.01-.33.101-.563.18-.768.066-.168.123-.312.146-.535a.34.34 0 0 0-.019-.176h-8.88c-.054 0-.085.015-.123.059-.113.134-.174.45-.133.691.024.148.173.274.274.34l1.508.078c.089.04.512.038 1.143.548.285.23.859.795 1.415 1.34.347.343.802.79 1.016.981.067-.035.15-.091.204-.136l.399-.337.319.413c.049.062 4.898 6.325 6.124 7.713 1.219 1.382 2.361 2.433 2.372 2.444l.076.089c.4.59 1.064.944 1.776.944 1.256 0 2.049-1.219 2.347-2.262.628-1.837 1.576-4.76 1.64-5.383.083-.808.062-1.085.062-1.088l.995-.104c.005.057.032.381-.063 1.295-.097.936-1.518 5.107-1.68 5.58-.386 1.353-1.489 2.962-3.301 2.962z"></path><path fill="#231f20" d="M20.006 55.984a1.02 1.02 0 0 1-.414-.092c-.223-.098-.692-.202-1.285-.333l-.52-.117c-.562-.128-1.392.026-1.996.138a7.5 7.5 0 0 1-.646.102 1.58 1.58 0 0 0-.356.087c-.321.104-.76.248-1.307-.102-.709-.453-.5-1.389-.264-1.87l.061-.126 5.598-3.575.54.842-5.35 3.417c-.075.213-.095.438-.046.47.14.09.186.08.46-.007.157-.051.351-.115.584-.132.131-.011.32-.048.543-.09.69-.127 1.638-.304 2.399-.13l.516.116c.664.147 1.113.247 1.422.374l.167-.5 2.881.314-.11.994-2.1-.23a.917.917 0 0 1-.416.372.882.882 0 0 1-.361.078z"></path><path fill="#ff6d00" d="m32.001 52.225-1.646-5.5 2.458 5.458z"></path><g fill="#231f20"><path d="M44.727 7.678a1.135 1.135 0 0 1-.874-.404c-.199-.232-.294-.529-.27-.834s.167-.582.4-.78l.38-.324 1.485 1.744-.38.324a1.138 1.138 0 0 1-.741.274zm.44-1.87a.5.5 0 0 1-.447-.724L46.933.661a.5.5 0 0 1 .895.447l-2.214 4.425a.501.501 0 0 1-.447.277zm.837.984a.5.5 0 0 1-.179-.967l4.63-1.775a.5.5 0 0 1 .357.934l-4.63 1.775a.499.499 0 0 1-.178.033z"></path><path d="m44.058 5.599 1.268-1.079 1.476 1.736-1.269 1.078z"></path><path d="M45.313 6.478a.5.5 0 0 1-.324-.88l3.983-3.389a.5.5 0 1 1 .648.762l-3.983 3.388a.5.5 0 0 1-.324.119z"></path><path d="M49.65 5.484a.5.5 0 0 1-.453-.288l-.864-1.835-1.709-1.279a.501.501 0 0 1 .6-.8l1.808 1.354a.49.49 0 0 1 .153.187l.917 1.948a.499.499 0 0 1-.453.713zm-1.498.555a.5.5 0 0 1-.45-.283L47.1 4.505l-1.177-1.066a.5.5 0 0 1 .672-.74l1.249 1.131a.478.478 0 0 1 .114.154l.646 1.338a.5.5 0 0 1-.45.717z"></path></g></svg>